<mxfile host="65bd71144e">
    <diagram id="A3qWTJxBf30MFO97emnY" name="Page-1">
        <mxGraphModel dx="1377" dy="1045" grid="1" gridSize="10" guides="1" tooltips="1" connect="1" arrows="1" fold="1" page="1" pageScale="1" pageWidth="850" pageHeight="1100" math="0" shadow="0">
            <root>
                <mxCell id="0"/>
                <mxCell id="1" parent="0"/>
                <mxCell id="2" value="" style="strokeWidth=1;shadow=0;dashed=0;align=center;html=1;shape=mxgraph.mockup.containers.browserWindow;rSize=0;strokeColor=#666666;strokeColor2=#008cff;strokeColor3=#c4c4c4;mainText=,;recursiveResize=0;" parent="1" vertex="1">
                    <mxGeometry x="10" y="10" width="830" height="600" as="geometry"/>
                </mxCell>
                <mxCell id="3" value="aut.dig" style="strokeWidth=1;shadow=0;dashed=0;align=center;html=1;shape=mxgraph.mockup.containers.anchor;fontSize=17;fontColor=#666666;align=left;" parent="2" vertex="1">
                    <mxGeometry x="60" y="12" width="110" height="26" as="geometry"/>
                </mxCell>
                <mxCell id="4" value="https://autorizacao.digital/log" style="strokeWidth=1;shadow=0;dashed=0;align=center;html=1;shape=mxgraph.mockup.containers.anchor;rSize=0;fontSize=17;fontColor=#666666;align=left;" parent="2" vertex="1">
                    <mxGeometry x="130" y="60" width="250" height="26" as="geometry"/>
                </mxCell>
                <mxCell id="9" value="&lt;table cellpadding=&quot;4&quot; cellspacing=&quot;0&quot; border=&quot;1&quot; style=&quot;font-size: 1em ; width: 100% ; height: 100%&quot;&gt;&lt;tbody&gt;&lt;tr&gt;&lt;th&gt;DATE&lt;/th&gt;&lt;th&gt;ACTION&lt;/th&gt;&lt;/tr&gt;&lt;tr&gt;&lt;td&gt;2021-10-10 14:30&lt;/td&gt;&lt;td&gt;Process has started&lt;/td&gt;&lt;/tr&gt;&lt;tr&gt;&lt;td&gt;2021-10-10 14:40&lt;br&gt;&lt;/td&gt;&lt;td&gt;Initation has sent&lt;/td&gt;&lt;/tr&gt;&lt;/tbody&gt;&lt;/table&gt; " style="verticalAlign=top;align=left;overflow=fill;fontSize=12;fontFamily=Helvetica;html=1" vertex="1" parent="2">
                    <mxGeometry x="105" y="280" width="620" height="70" as="geometry"/>
                </mxCell>
                <mxCell id="11" value="Data inÃ­cio" style="rounded=1;arcSize=9;fillColor=#F7F8F9;align=left;spacingLeft=5;strokeColor=#DEE1E6;html=1;strokeWidth=2;fontColor=#596780;fontSize=12" vertex="1" parent="2">
                    <mxGeometry x="400" y="210" width="150" height="30" as="geometry"/>
                </mxCell>
                <mxCell id="12" value="" style="shape=mxgraph.gmdl.calendar;fillColor=#5A6881;strokeColor=none" vertex="1" parent="11">
                    <mxGeometry x="1" y="0.5" width="18" height="18" relative="1" as="geometry">
                        <mxPoint x="-29" y="-9" as="offset"/>
                    </mxGeometry>
                </mxCell>
                <mxCell id="13" value="Data final" style="rounded=1;arcSize=9;fillColor=#F7F8F9;align=left;spacingLeft=5;strokeColor=#DEE1E6;html=1;strokeWidth=2;fontColor=#596780;fontSize=12" vertex="1" parent="2">
                    <mxGeometry x="570" y="210" width="150" height="30" as="geometry"/>
                </mxCell>
                <mxCell id="14" value="" style="shape=mxgraph.gmdl.calendar;fillColor=#5A6881;strokeColor=none" vertex="1" parent="13">
                    <mxGeometry x="1" y="0.5" width="18" height="18" relative="1" as="geometry">
                        <mxPoint x="-29" y="-9" as="offset"/>
                    </mxGeometry>
                </mxCell>
                <mxCell id="6" value="&lt;b&gt;&lt;font style=&quot;font-size: 15px&quot;&gt;aut.dig&lt;/font&gt;&lt;/b&gt;" style="text;html=1;strokeColor=none;fillColor=none;align=center;verticalAlign=middle;whiteSpace=wrap;rounded=0;" parent="1" vertex="1">
                    <mxGeometry x="445" y="158" width="40" height="20" as="geometry"/>
                </mxCell>
                <mxCell id="7" value="" style="shape=mxgraph.mockup.markup.scratchOut;shadow=0;dashed=0;html=1;strokeColor=#999999;strokeWidth=2;" parent="1" vertex="1">
                    <mxGeometry x="370" y="153" width="55" height="30" as="geometry"/>
                </mxCell>
                <mxCell id="8" value="" style="pointerEvents=1;shadow=0;dashed=0;html=1;strokeColor=none;fillColor=#505050;labelPosition=center;verticalLabelPosition=bottom;verticalAlign=top;outlineConnect=0;align=center;shape=mxgraph.office.concepts.search;" vertex="1" parent="1">
                    <mxGeometry x="410" y="520" width="35" height="35" as="geometry"/>
                </mxCell>
                <mxCell id="15" value="&lt;font style=&quot;font-size: 12px&quot;&gt;Processo&lt;/font&gt;" style="strokeWidth=1;shadow=0;dashed=0;align=center;html=1;shape=mxgraph.mockup.forms.comboBox;strokeColor=#999999;fillColor=#ddeeff;align=left;fillColor2=#aaddff;mainText=;fontColor=#666666;fontSize=17;spacingLeft=3;" vertex="1" parent="1">
                    <mxGeometry x="110" y="220" width="230" height="30" as="geometry"/>
                </mxCell>
                <mxCell id="16" value="&lt;font color=&quot;#ffffff&quot;&gt;SEARCH&lt;/font&gt;" style="rounded=1;whiteSpace=wrap;html=1;align=center;fillColor=#00A653;strokeColor=none;" vertex="1" parent="1">
                    <mxGeometry x="145" y="520" width="230" height="30" as="geometry"/>
                </mxCell>
                <mxCell id="17" value="&lt;font color=&quot;#ffffff&quot;&gt;GO BACK&lt;/font&gt;" style="rounded=1;whiteSpace=wrap;html=1;align=center;fillColor=#0050ef;strokeColor=#001DBC;fontColor=#ffffff;" vertex="1" parent="1">
                    <mxGeometry x="485" y="520" width="230" height="30" as="geometry"/>
                </mxCell>
            </root>
        </mxGraphModel>
    </diagram>
</mxfile>